<svg class="cookie__icon" width="44" height="44" viewBox="0 0 44 44" fill="none" xmlns="http://www.w3.org/2000/svg">
            <path fill-rule="evenodd" clip-rule="evenodd" d="M17.6802 7C18.5196 7 19.2002 6.32843 19.2002 5.5C19.2002 4.67157 18.5196 4 17.6802 4C16.8407 4 16.1602 4.67157 16.1602 5.5C16.1602 6.32843 16.8407 7 17.6802 7ZM9.20245 34.615C12.6635 38.089 17.2934 40 22.241 40C32.2988 40 40.481 31.9675 40.481 22.093C40.481 13.7365 34.6929 6.57251 26.4058 4.67051C24.7323 4.29101 23.0603 5.27951 22.6757 6.88301C22.1772 8.96351 20.3076 10.468 18.1294 10.5415C17.7068 10.5565 17.3101 10.744 17.0335 11.0575C16.7568 11.3725 16.6246 11.7865 16.6702 12.2005L16.7036 12.451L16.7325 12.718C16.7325 15.9025 13.5344 18.43 10.1783 17.173C9.45477 16.903 8.64157 17.2105 8.28741 17.8885C7.64597 19.1155 6.50901 20.011 5.16381 20.3455C4.86437 20.4205 4.58317 20.599 4.37949 20.8285C4.14237 21.0955 4.00861 21.4375 4.00253 21.7915C3.92197 26.6155 5.76877 31.1695 9.20245 34.615ZM11.37 32.512C8.75709 29.8915 7.24925 26.5 7.06077 22.873C8.35277 22.3285 9.47757 21.4525 10.3166 20.335C10.841 20.4445 11.3654 20.5 11.8868 20.5C16.0212 20.5 19.4229 17.344 19.7467 13.342C22.618 12.685 24.9375 10.477 25.6154 7.61201L25.7172 7.59251C32.6196 9.17651 37.441 15.139 37.441 22.093C37.441 30.313 30.6223 37 22.241 37C18.1157 37 14.2549 35.407 11.37 32.512ZM28.3217 16.75C28.3217 17.9926 27.3009 19 26.0417 19C24.7825 19 23.7617 17.9926 23.7617 16.75C23.7617 15.5074 24.7825 14.5 26.0417 14.5C27.3009 14.5 28.3217 15.5074 28.3217 16.75ZM15.4011 28C16.6603 28 17.6811 26.9926 17.6811 25.75C17.6811 24.5074 16.6603 23.5 15.4011 23.5C14.1419 23.5 13.1211 24.5074 13.1211 25.75C13.1211 26.9926 14.1419 28 15.4011 28ZM29.8412 28.75C29.8412 29.9926 28.8205 31 27.5613 31C26.302 31 25.2812 29.9926 25.2812 28.75C25.2812 27.5074 26.302 26.5 27.5613 26.5C28.8205 26.5 29.8412 27.5074 29.8412 28.75ZM22.2427 23.5C23.0821 23.5 23.7627 22.8284 23.7627 22C23.7627 21.1716 23.0821 20.5 22.2427 20.5C21.4032 20.5 20.7227 21.1716 20.7227 22C20.7227 22.8284 21.4032 23.5 22.2427 23.5ZM20.7197 31C20.7197 31.8284 20.0392 32.5 19.1997 32.5C18.3602 32.5 17.6797 31.8284 17.6797 31C17.6797 30.1716 18.3602 29.5 19.1997 29.5C20.0392 29.5 20.7197 30.1716 20.7197 31ZM13.1225 12.25C13.1225 13.4926 12.1017 14.5 10.8425 14.5C9.58329 14.5 8.5625 13.4926 8.5625 12.25C8.5625 11.0074 9.58329 10 10.8425 10C12.1017 10 13.1225 11.0074 13.1225 12.25ZM31.3598 23.5C32.1993 23.5 32.8798 22.8284 32.8798 22C32.8798 21.1716 32.1993 20.5 31.3598 20.5C30.5204 20.5 29.8398 21.1716 29.8398 22C29.8398 22.8284 30.5204 23.5 31.3598 23.5Z" fill="#00B7B3"></path>
        </svg>