<svg width="18" height="18" viewBox="0 0 18 18" fill="none" xmlns="http://www.w3.org/2000/svg">
            <rect width="18" height="18" fill="white" fill-opacity="0.01"></rect>
            <g clip-path="url(#clip1_6738_42689)">
                <path d="M7.74 10.6201L5.805 8.68512C5.64 8.52012 5.43 8.43762 5.175 8.43762C4.92 8.43762 4.71 8.52012 4.545 8.68512C4.38 8.85012 4.2975 9.06012 4.2975 9.31512C4.2975 9.57012 4.38 9.78012 4.545 9.94512L7.11 12.5101C7.29 12.6901 7.5 12.7801 7.74 12.7801C7.98 12.7801 8.19 12.6901 8.37 12.5101L13.455 7.42512C13.62 7.26012 13.7025 7.05012 13.7025 6.79512C13.7025 6.54012 13.62 6.33012 13.455 6.16512C13.29 6.00012 13.08 5.91762 12.825 5.91762C12.57 5.91762 12.36 6.00012 12.195 6.16512L7.74 10.6201ZM9 18.0001C7.755 18.0001 6.585 17.7639 5.49 17.2914C4.395 16.8189 3.4425 16.1776 2.6325 15.3676C1.8225 14.5576 1.18125 13.6051 0.70875 12.5101C0.23625 11.4151 0 10.2451 0 9.00012C0 7.75512 0.23625 6.58512 0.70875 5.49012C1.18125 4.39512 1.8225 3.44262 2.6325 2.63262C3.4425 1.82262 4.395 1.18137 5.49 0.708872C6.585 0.236372 7.755 0.00012207 9 0.00012207C10.245 0.00012207 11.415 0.236372 12.51 0.708872C13.605 1.18137 14.5575 1.82262 15.3675 2.63262C16.1775 3.44262 16.8187 4.39512 17.2912 5.49012C17.7637 6.58512 18 7.75512 18 9.00012C18 10.2451 17.7637 11.4151 17.2912 12.5101C16.8187 13.6051 16.1775 14.5576 15.3675 15.3676C14.5575 16.1776 13.605 16.8189 12.51 17.2914C11.415 17.7639 10.245 18.0001 9 18.0001ZM9 16.2001C11.01 16.2001 12.7125 15.5026 14.1075 14.1076C15.5025 12.7126 16.2 11.0101 16.2 9.00012C16.2 6.99012 15.5025 5.28762 14.1075 3.89262C12.7125 2.49762 11.01 1.80012 9 1.80012C6.99 1.80012 5.2875 2.49762 3.8925 3.89262C2.4975 5.28762 1.8 6.99012 1.8 9.00012C1.8 11.0101 2.4975 12.7126 3.8925 14.1076C5.2875 15.5026 6.99 16.2001 9 16.2001Z" fill="white"></path>
            </g>
        </svg>